<svg width="188" height="68" viewBox="0 0 188 68" fill="none" xmlns="http://www.w3.org/2000/svg">
<path fill-rule="evenodd" clip-rule="evenodd" d="M68.1146 34.0001C68.1146 47.9859 59.6563 59.998 47.5684 65.2198C46.4122 65.7193 45.2207 66.1576 44.0017 66.5276C40.8554 67.4857 37.5166 67.9999 34.0573 67.9999C32.1341 67.9999 30.2497 67.8409 28.4135 67.5338C25.7641 67.0954 23.2181 66.3482 20.8131 65.3345C15.2861 63.0019 10.5039 59.2562 6.92231 54.5504C2.5775 48.8422 0 41.7226 0 34C0 15.2215 15.2471 0 34.0573 0C52.8656 0 68.1145 15.2215 68.1145 34L68.1146 34.0001Z" fill="#F9B004"/>
<path fill-rule="evenodd" clip-rule="evenodd" d="M13.6578 48.2486C13.7968 48.2061 13.9005 48.0765 13.9005 47.923C13.9042 47.7121 13.9617 47.4476 14.0265 47.1553C14.0765 46.9296 14.1284 46.6892 14.1655 46.4322C14.3137 46.2619 14.5416 46.1231 14.9029 46.051C15.468 46.051 15.3846 46.2675 15.9961 46.0787C16.0145 46.1398 16.035 46.1952 16.0535 46.2471C15.9979 47.0849 16.9874 46.9556 16.4371 48.0543C16.3202 48.4076 16.0831 48.526 15.8478 48.8792C15.2642 49.7541 15.5883 50.6234 13.7226 48.7608C13.5966 48.5093 13.606 48.3928 13.6577 48.2485L13.6578 48.2486Z" fill="#35393F"/>
<path fill-rule="evenodd" clip-rule="evenodd" d="M63.0174 23.5818C46.7345 21.9466 40.1204 26.8397 33.7132 36.4379C32.7923 37.6753 31.9622 39.0257 30.8283 40.2336L26.2572 39.3698L25.19 39.0645L25.4569 38.3321L25.4624 38.3118L27.2522 31.8877L27.2855 31.7637C27.33 31.5769 27.217 31.3901 27.0298 31.3438L26.0071 31.0904C26.0533 29.6957 26.2738 29.2629 26.5889 27.9051C26.739 27.3594 26.8352 26.8157 26.8853 26.2699V26.2625C27.0243 24.6884 26.7594 23.1144 26.2351 21.5402C25.9368 20.7966 25.1994 19.1336 24.8121 18.0498C24.299 15.8413 24.273 13.6549 24.525 11.879C25.3475 11.4685 25.9794 10.4751 26.0405 9.48362C26.1462 7.73373 25.1197 7.13445 23.58 6.98097C22.7221 6.8939 22.7629 5.63987 21.6253 5.75633C20.5376 5.83037 20.306 6.85516 18.972 7.055C16.9673 7.64691 16.378 9.41512 17.6787 10.9449C18.6997 12.4711 18.9461 12.495 18.3013 15.253C18.0753 16.2276 17.8084 17.0324 17.525 17.6983C16.9302 18.7138 16.1001 19.757 15.6111 20.2454C13.5312 22.0988 12.7882 24.7939 12.1536 27.4593L8.54797 26.514C8.36257 26.466 8.17188 26.5769 8.12359 26.762C6.7062 32.1651 5.40922 37.4312 3.80642 42.6992C2.93001 42.7584 2.05557 42.8453 1.18469 42.9581C4.10671 53.6718 12.148 62.2805 22.5239 66.004C24.6807 66.0187 26.8411 65.8634 28.8978 65.5488C28.7439 66.2 28.5791 66.8622 28.4031 67.5337C30.2392 67.8407 32.1235 67.9998 34.0469 67.9998C35.0029 66.3406 35.87 64.7277 36.5056 63.2108C36.9261 63.0574 37.3004 62.9779 37.5654 63.0592C37.81 63.1341 41.8272 66.3364 42.6329 66.9085C44.7358 66.3647 46.761 65.6247 48.6844 64.7074C47.5188 63.0999 46.2867 61.4906 44.9896 59.8425C49.4384 56.9663 47.9338 49.9206 48.4286 43.428C48.4304 43.4114 48.4304 43.3947 48.4342 43.3781L57.3403 44.2537L58.2037 44.4165C59.2037 46.8178 59.3585 47.1516 61.1617 46.9174C63.6716 46.5919 63.977 44.4607 63.9949 42.1302C64.0433 35.8782 59.5056 27.3141 63.0175 23.5817L63.0174 23.5818ZM27.734 42.5439C27.6616 42.431 27.5987 42.3202 27.5357 42.2054L26.4425 40.6534L28.6084 40.9587L29.8388 41.1751C29.2348 41.6839 28.5455 42.1463 27.7339 42.5439H27.734ZM48.6637 42.0242C49.264 39.5898 50.7592 37.1409 51.2633 36.3548C52.8197 38.1915 55.6262 40.7298 56.899 43.1697C54.4199 43.1622 51.1132 42.7177 48.6637 42.0242Z" fill="#12374A"/>
<path fill-rule="evenodd" clip-rule="evenodd" d="M24.5245 11.2909C25.7385 10.9475 25.6242 8.78927 25.3475 8.34384C25.1188 7.5484 23.6525 7.28006 22.5157 7.99826L22.5197 10.1197C23.302 10.2233 24.5233 10.2165 24.5245 11.2909Z" fill="#FEFEFE"/>
<path fill-rule="evenodd" clip-rule="evenodd" d="M22.1245 7.99383C20.9575 7.49638 19.1073 7.08181 18.1474 8.23401C17.2044 9.4134 18.2687 11.1795 19.0952 11.5322C20.2689 10.1232 19.4554 10.1181 22.1283 10.115L22.1261 8.08902L22.1243 7.99371L22.1245 7.99383Z" fill="#FEFEFE"/>
<path fill-rule="evenodd" clip-rule="evenodd" d="M24.2232 54.9719L25.4969 55.8421C26.0495 56.2195 26.1334 56.1579 25.6767 56.7895C25.4471 57.1066 25.1487 57.433 24.9358 57.7163C24.2277 58.6588 23.6375 59.8372 23.2835 61.0155C23.0991 61.5678 22.8428 61.9047 22.6269 62.3057C22.5502 62.4486 22.4731 62.8062 22.1757 62.5264C22.1226 62.4765 22.0912 62.3535 21.986 62.1341C21.7902 61.726 21.503 61.5219 20.9673 61.6787C20.528 61.8078 20.5679 61.7851 20.5692 61.3574C20.5699 61.2004 20.5973 61.0485 20.6229 60.901C20.7469 60.1887 21.0408 59.5915 21.3246 59.1622C22.0428 58.0754 21.9381 58.5637 22.4191 57.1232L22.5752 56.6555C22.759 56.2886 23.0803 55.498 23.4048 55.0184C23.7544 54.5006 23.7684 54.6613 24.2232 54.9718V54.9719Z" fill="#FEFEFE"/>
<path fill-rule="evenodd" clip-rule="evenodd" d="M26.0593 55.2615C25.6283 55.0518 25.0909 54.7409 24.7542 54.5166C24.2368 54.172 24.1621 54.2271 24.5215 53.5469C24.5994 53.3996 24.6882 53.2454 24.7719 53.0979C25.1669 52.3992 24.9528 52.4332 25.8752 52.7552C26.3043 52.9047 26.819 53.1121 27.2399 53.3209C28.1821 53.7883 28.15 53.8192 27.452 54.5946C27.3429 54.7156 27.2275 54.837 27.1151 54.9523C26.5946 55.4851 26.709 55.5778 26.0593 55.2616V55.2615Z" fill="#22A0B5"/>
<path fill-rule="evenodd" clip-rule="evenodd" d="M24.2187 61.8903C24.7687 62.2379 25.9956 62.8678 26.008 63.246C26.02 63.6243 24.2674 63.6749 23.8273 63.4935C23.3876 63.3123 23.2896 62.9188 23.2896 62.9188L24.2187 61.8904V61.8903Z" fill="#FEFEFE"/>
<path fill-rule="evenodd" clip-rule="evenodd" d="M24.9958 40.3957L23.9865 44.3414C23.4996 46.1546 23.6522 45.6873 23.1249 47.6521C23.1249 47.7767 24.7503 49.586 25.0652 50.2153C25.5372 51.1578 24.818 51.2353 25.7622 51.8246C28.595 53.5918 28.595 53.4742 29.5394 52.0602C31.4277 49.7036 30.3655 49.468 28.7131 46.4042C27.7687 44.6366 26.7606 42.1158 25.3441 40.7019C25.2143 40.5986 25.099 40.4964 24.9958 40.3958V40.3957Z" fill="#22A0B5"/>
<path fill-rule="evenodd" clip-rule="evenodd" d="M17.76 29.0414L25.1819 30.8673C25.7078 27.9147 26.754 24.506 25.2937 21.6391C24.7733 20.6175 24.0631 19.7779 23.8009 19.7127C23.7734 23.0258 23.0735 26.6255 22.8723 30.0628C22.8675 30.1418 22.154 29.8987 22.0934 29.9392C23.0762 24.9244 21.2799 23.1119 18.5046 19.1532C15.5692 21.2151 14.5112 21.7005 13.555 25.461C13.1879 26.9043 13.1925 26.8635 14.6358 27.2354C15.9845 27.5829 17.59 27.9263 17.76 29.0414Z" fill="#22A0B5"/>
<path d="M26.5219 31.9333L17.4997 29.6923C16.8951 30.37 16.4682 33.8002 16.298 37.3861C16.1219 41.0971 16.2388 44.9304 16.73 46.0654C16.7606 46.1391 16.7916 46.1937 16.8208 46.227C17.8614 47.4137 17.4407 48.0153 17.1059 48.4616L21.8596 49.7125L26.5219 31.9332V31.9333Z" fill="#C4C4C4"/>
<path d="M11.8423 28.0953L8.70809 27.2733L4.06262 44.9879L13.1345 47.7879C13.16 47.636 13.3103 47.1718 13.3461 47.0087C13.4522 46.5246 13.5753 45.9652 13.4951 45.3534C13.465 45.1219 13.5042 44.7326 13.3667 44.4418C13.1431 43.9702 12.8969 43.4505 12.8891 42.7975C12.8761 41.7139 12.5075 40.6051 12.3058 39.3712C11.5599 34.8153 11.9403 34.0041 12.5146 30.0211C12.5464 29.7997 12.5634 29.642 12.5447 29.6393C11.752 29.5255 11.6993 29.0029 11.7806 28.4406C11.7944 28.3434 11.8131 28.2473 11.8312 28.1535L11.8423 28.0954V28.0953Z" fill="#C4C4C4"/>
<path fill-rule="evenodd" clip-rule="evenodd" d="M13.1974 30.1594C12.8226 32.557 12.3854 34.6065 12.6706 37.087C12.877 38.8836 13.5279 44.1099 14.431 45.4613H15.848C15.5211 43.733 15.455 40.4884 15.6037 37.3533C15.715 35.0058 15.9537 32.703 16.3014 31.1139C15.2728 30.5017 14.3008 30.4343 13.1974 30.1593V30.1594Z" fill="#F8DEAA"/>
<path fill-rule="evenodd" clip-rule="evenodd" d="M13.3899 29.0691C14.0218 29.2309 14.6411 29.4819 15.2264 29.6866C15.5101 29.7856 15.786 29.874 16.0514 29.9357C16.8445 30.1204 17.3303 29.2278 16.1698 28.7687C15.9769 28.6923 15.7799 28.6077 15.581 28.5214C14.9094 28.2295 14.2157 27.9162 13.5801 27.8201C12.6369 27.6771 12.3813 28.8114 13.3899 29.0693V29.0691Z" fill="#22A0B5"/>
<path fill-rule="evenodd" clip-rule="evenodd" d="M51.4766 35.3999C46.1072 40.2053 47.7243 46.3454 47.3057 52.5891C47.0364 56.6049 45.8619 58.6454 43.9359 59.7607C43.2208 60.4821 44.3493 61.4198 45.6185 62.9958C46.2966 63.8393 47.0655 64.7752 47.7936 65.6576C46.6374 66.157 45.4461 66.5953 44.2269 66.9654C43.0648 66.0571 41.2135 64.381 40.1394 63.6395C35.9001 60.3545 37.4972 63.4582 32.1461 64.2333C30.1655 64.5625 27.7532 64.2647 25.9669 61.9266C26.3893 61.6454 27.7159 61.1441 28.2923 60.2176C29.0871 58.9393 29.0687 58.9596 29.5466 57.3893C29.7264 56.7974 29.593 56.1499 29.8654 55.6801C30.2749 54.9753 31.1346 54.4742 31.6274 53.5752C33.671 49.848 30.7314 44.2457 30.2885 42.8436C32.646 41.2552 34.8873 38.1402 34.8481 37.2042C34.8451 37.1326 35.9025 37.0375 35.5779 39.3845C38.095 36.5724 38.0392 33.828 38.4717 32.366C38.3637 33.2028 40.1314 33.7803 39.8235 35.6807C41.9726 33.563 41.4084 31.2106 42.8887 28.8466C43.2639 31.3439 43.5634 31.2661 43.5155 32.2443C45.2998 30.1687 46.2918 29.1801 46.1531 26.9602C47.559 28.8926 47.5918 31.1277 47.39 31.5283C48.127 31.1905 50.5027 27.9637 50.6814 25.1893C51.3246 27.3347 50.8385 29.2107 50.7608 29.2107C51.9557 28.7306 52.7538 28.0409 55.1448 24.9911C54.0665 32.5234 49.8569 32.8417 51.4765 35.3998L51.4766 35.3999Z" fill="#F8DEAA"/>
<path fill-rule="evenodd" clip-rule="evenodd" d="M56.557 26.826C56.8952 24.4851 59.0429 24.5111 61.167 24.3743C60.8076 24.7216 59.4843 25.3594 58.6382 26.1076C57.5378 27.0806 58.0886 27.6906 58.6176 27.2453C59.2105 26.747 60.0472 27.4429 58.9168 28.0792C57.9237 28.6378 56.3678 28.1374 56.557 26.826Z" fill="#F8DEAA"/>
<path fill-rule="evenodd" clip-rule="evenodd" d="M61.0826 43.3253C61.1735 42.9851 61.4281 42.7532 61.809 42.6965C62.6119 42.5374 62.6768 42.8954 62.7113 43.4901C62.7381 43.9574 62.8362 44.1247 62.3652 43.719C62.2333 43.6049 62.2204 43.5482 62.1918 43.4857C62.0356 43.1457 61.8003 43.2768 61.794 43.5957C61.7894 43.8291 61.8658 44.0654 61.9322 44.3019C62.1654 44.7371 62.4511 44.5504 62.6099 44.3865C62.7467 44.2454 62.8529 44.2203 62.9187 44.396C63.352 45.5557 62.7166 45.9247 61.4682 44.5489C60.9221 44.0148 60.9178 43.9429 61.0826 43.3254V43.3253Z" fill="#F8DEAA"/>
<path fill-rule="evenodd" clip-rule="evenodd" d="M59.8657 45.8083C59.3335 45.2677 59.4546 44.4539 59.834 43.8421C60.067 43.4668 60.5359 43.1074 60.527 43.8695C60.5232 44.2147 60.5246 44.6152 60.4961 44.987C60.4744 45.2656 60.436 45.5285 60.3661 45.7402C60.2345 46.1386 60.1541 46.1012 59.8657 45.8084V45.8083Z" fill="#F8DEAA"/>
<path fill-rule="evenodd" clip-rule="evenodd" d="M55.9972 32.1234C54.2531 30.9207 54.2587 29.5352 55.8636 29.7627C56.0504 28.9157 56.4896 28.6873 56.9836 28.858C58.3049 29.3139 57.959 30.597 57.5107 31.6309C57.2073 32.3296 56.7199 32.7683 55.9971 32.1235L55.9972 32.1234Z" fill="#F8DEAA"/>
<path fill-rule="evenodd" clip-rule="evenodd" d="M60.7212 39.9223C59.8888 38.1389 58.4258 34.7462 58.089 33.259C57.895 32.4032 58.13 32.729 58.4709 32.0655C58.5491 31.9137 58.6159 31.7445 58.6707 31.5658C58.9282 30.7238 58.8581 30.9477 59.9274 30.8718C60.4073 30.8379 60.8456 30.8624 61.4305 31.1536C61.9439 32.3679 61.6293 33.6865 61.4635 34.9609C61.2574 36.5421 61.5224 37.1913 61.8977 38.6629C62.1288 39.568 62.2881 40.4793 61.8632 40.804C61.173 41.3316 60.927 40.3635 60.7212 39.9223Z" fill="#F8DEAA"/>
<path fill-rule="evenodd" clip-rule="evenodd" d="M54.7199 32.3215C55.6862 32.9881 55.9838 33.3837 56.3563 34.4956L57.7415 37.9774C58.0397 38.7266 59.6324 41.9463 59.4518 42.2726C59.0271 43.0386 58.3396 42.3518 58.0422 41.9264C57.3401 40.9223 56.3802 39.0549 55.6656 38.1059C51.5648 37.5245 53.1332 33.0803 54.7196 32.3215H54.7199Z" fill="#F8DEAA"/>
<path fill-rule="evenodd" clip-rule="evenodd" d="M57.4954 33.3567C57.7163 33.7468 57.883 34.2255 58.0809 34.7781C58.3415 35.5051 58.5546 36.2793 58.7995 37.0479C58.9449 37.5035 60.2809 40.4096 60.7186 41.5614C60.8453 41.8942 60.4283 42.1523 60.2312 41.8161C59.4645 40.5055 58.6267 38.6728 58.1023 37.2292C57.7406 36.2317 57.4274 35.1138 57.022 34.2553C56.9291 34.0584 56.8514 33.9317 56.7938 33.841C56.4911 33.3656 57.1848 32.8077 57.4952 33.3565L57.4954 33.3567Z" fill="#F8DEAA"/>
<path d="M60.719 34.3712C60.8084 34.1653 60.8868 33.36 60.3907 32.7713C59.7901 32.0585 58.9428 32.2439 58.982 33.36C58.993 33.6771 59.085 34.0013 59.2421 34.2863C59.6618 35.0483 60.2442 35.1737 60.719 34.3711V34.3712Z" fill="#12374A"/>
<path fill-rule="evenodd" clip-rule="evenodd" d="M22.6275 65.3327C22.0031 65.353 21.3936 65.353 20.8024 65.3346C15.2755 63.002 10.4933 59.2563 6.91162 54.5506C7.36377 54.312 7.86212 54.1567 8.47731 54.1214C9.19989 54.0807 9.22766 54.1011 9.82049 54.4377C10.4394 54.7855 11.0676 55.0185 11.6975 55.05C12.913 55.111 12.4554 54.5506 12.8407 56.0006C13.3169 57.7913 14.3491 60.1405 15.3848 61.0042C16.7892 62.1751 17.9102 62.0696 19.374 62.2971C19.6501 63.6825 21.4213 64.0304 21.8864 63.9822L22.6275 65.3325V65.3327Z" fill="#F8DEAA"/>
<path fill-rule="evenodd" clip-rule="evenodd" d="M16.0581 46.0384C15.0413 46.2289 15.3621 45.7914 14.1885 46.3997C14.0828 46.9367 13.9969 47.2877 13.8866 47.6392C13.5623 48.6737 13.3176 48.4353 14.1154 49.149C15.2004 49.9735 15.1616 50.2748 15.7743 49.1209L16.2365 48.4961C16.7425 47.591 16.8284 47.5214 16.2181 46.6773L16.0581 46.0384Z" fill="#F8DEAA"/>
<path d="M47.93 41.8152C48.1764 41.8855 48.421 41.9558 48.6636 42.0243C48.5506 42.4792 48.4691 42.9342 48.4339 43.3783L47.6187 43.2673C44.1593 43.186 39.3975 42.57 35.9049 42.1094L32.7977 41.6988L29.8389 41.1752C30.1964 40.8757 30.5243 40.5594 30.8282 40.2338L30.9116 40.2506L36.1236 41.2308C40.2426 41.8283 43.7536 41.8654 47.93 41.8155V41.8152Z" fill="#12374A"/>
<path fill-rule="evenodd" clip-rule="evenodd" d="M22.5905 14.7777C22.6924 14.7777 22.7555 14.8221 22.8407 14.8368C22.9555 14.8164 23.0667 14.7405 23.2482 14.7961C23.4947 14.8701 23.7502 15.0236 23.9504 15.1624C23.9875 14.8183 23.9893 14.4188 23.9782 14.0377C23.9504 12.9962 23.9412 12.5967 23.9393 12.4766C23.9209 12.5264 23.8987 12.5763 23.8171 12.6301C23.7393 12.6708 23.3094 12.7669 23.1797 12.3841C23.1389 12.3952 23.0981 12.4081 23.0556 12.4228L23.0092 12.2916C23.4002 12.1509 23.7597 12.201 23.9357 12.2417C23.9413 12.1288 24.0005 11.9531 23.4169 11.9531C22.8109 12.0122 22.8592 12.4377 22.9908 12.9501C23.0482 13.1757 23.0853 13.3496 23.1074 13.5272C23.1945 14.232 23.2687 14.3394 22.5738 14.4114C22.1402 14.4539 21.8845 14.1914 22.4385 14.1876C23.05 14.1858 22.9555 14.1895 22.8499 13.5809C22.8166 13.3905 22.7758 13.1961 22.737 12.9983C22.6796 12.7024 22.6443 12.4137 22.6888 12.1918C22.7888 11.5906 23.5299 11.7201 23.8431 11.4704C23.8988 11.426 24.0042 11.3372 23.8542 11.1393C23.2279 10.2162 22.4776 10.958 22.3607 11.0765L22.1624 10.7158C21.5733 10.7175 20.8655 10.599 20.6283 10.836C20.5691 10.8952 20.1745 11.5278 20.3468 11.4704C20.8378 11.3057 21.6826 11.1245 22.4092 11.7738C21.957 12.4008 21.7976 11.3372 20.2764 12.0142C20.1598 13.4293 19.9244 14.3707 19.9263 15.7859C19.9281 17.5522 19.1357 18.8352 19.1357 18.8352C19.7226 19.7762 22.2937 23.8134 22.6954 24.4069C22.7833 23.748 23.5642 18.5858 23.3502 17.3136C22.3478 17.4264 20.9527 16.9861 20.2412 15.9152C20.7062 16.2888 21.2251 16.7272 22.2885 16.8439C22.9908 16.9419 23.5243 16.4443 23.8116 15.7859C23.856 15.6822 23.8893 15.5583 23.9154 15.4177C23.6819 15.388 23.4077 15.3399 23.2483 15.2697C23.1539 15.2272 22.9575 15.1291 22.8593 15.1069C22.763 15.1255 22.561 15.229 22.4646 15.2716C22.1516 15.4122 21.3806 15.4603 21.3806 15.4603C21.3806 15.4603 21.9439 14.9553 22.4646 14.7982C22.5129 14.7834 22.5535 14.7778 22.5906 14.7778L22.5905 14.7777ZM22.0718 12.3286L22.0643 12.3268L22.0699 12.3325C22.0218 12.412 22.0311 12.4897 21.8698 12.5766C21.7605 12.621 21.1565 12.7302 20.9897 12.2825C20.8897 12.2991 20.7897 12.3251 20.6914 12.3602L20.6432 12.229C21.3176 11.9885 22.1032 12.1939 22.1052 12.1939L22.0719 12.3289L22.0718 12.3286Z" fill="#F8DEAA"/>
<path fill-rule="evenodd" clip-rule="evenodd" d="M23.4688 15.5945C23.0781 15.956 22.3119 15.8351 22.1238 15.5975C22.6628 15.4961 22.9252 15.3925 23.4688 15.5945Z" fill="#12374A"/>
<path d="M72.6783 52.0858V43.0311H76.9211C78.8927 43.0311 79.9669 44.3615 79.9669 45.9499C79.9669 47.5246 78.8791 48.8685 76.9211 48.8685H74.6094V52.0859H72.6785L72.6783 52.0858ZM110.565 52.0858L110.008 50.5517H106.119L105.548 52.0858H103.345L106.853 43.0311H109.273L112.768 52.0858H110.565ZM108.063 44.9589L106.649 48.855H109.478L108.063 44.9589ZM95.1037 52.0858V50.5247L99.387 44.7281H95.1037V43.0311H101.916V44.5788L97.6328 50.389H102.011V52.0858H95.1036H95.1037ZM86.2234 52.0858V50.5247L90.5068 44.7281H86.2234V43.0311H93.0359V44.5788L88.7526 50.389H93.1311V52.0858H86.2233H86.2234ZM81.994 52.0858V43.0311H83.925V52.0858H81.994ZM77.9953 45.9498C77.9953 45.1894 77.4241 44.728 76.6624 44.728H74.6093V47.1715H76.6624C77.4241 47.1715 77.9953 46.6964 77.9953 45.9498Z" fill="#2F5D8E"/>
<path fill-rule="evenodd" clip-rule="evenodd" d="M103.723 35.9016H108.005V16.4332H103.723V24.4376H96.478V16.4332H92.1953V35.9016H96.478V27.8068H103.723V35.9016ZM87.2718 31.3243L87.1736 31.3877C86.7381 31.6888 86.1599 31.919 85.658 32.0796C84.9801 32.2966 84.259 32.4408 83.5483 32.4869C83.3929 32.497 83.2372 32.5023 83.0814 32.5023C81.3732 32.5023 79.879 31.9527 78.666 30.7417C77.4089 29.487 76.9025 27.9017 76.9025 26.1525C76.9025 24.4235 77.3981 22.8373 78.5989 21.5701C79.7758 20.328 81.293 19.8028 82.9906 19.8028C83.8373 19.8028 84.6649 19.9334 85.4637 20.2149C85.7948 20.3316 86.1278 20.4512 86.4522 20.5857C86.6484 20.6671 86.8818 20.7666 87.0561 20.8897L87.1692 20.9649L87.9032 17.0742L87.5596 16.9117L87.5539 16.9088C87.3313 16.7932 87.0729 16.7038 86.8338 16.629C86.4793 16.5182 86.1154 16.4292 85.7516 16.3549C84.8613 16.173 83.9298 16.0711 83.021 16.0711C80.1675 16.0711 77.6404 16.962 75.5708 18.9372C73.5043 20.9092 72.5898 23.34 72.5898 26.183C72.5898 29.0377 73.3327 31.707 75.5031 33.6636C77.6351 35.5853 80.2871 36.2945 83.1119 36.2945C84.0888 36.2945 85.0453 36.1868 85.9919 35.9428C86.3674 35.846 86.7459 35.7454 87.1154 35.6274C87.2992 35.5686 87.5258 35.4957 87.6952 35.4021L88.1122 35.1641L87.2719 31.3245L87.2718 31.3243ZM156.961 28.2435L159.786 20.503L162.61 28.2435H156.961ZM154.137 35.9017L154.627 34.6414L155.749 31.565H163.822L164.944 34.6414L165.434 35.9017H169.99L162.008 16.4333H157.563L149.581 35.9017H154.137ZM177.872 19.7724H178.665C179.881 19.7724 181.346 19.991 182.119 21.0425C182.496 21.5561 182.636 22.171 182.636 22.7995C182.636 25.2011 180.899 25.978 178.726 25.978H177.872V19.7724ZM173.589 35.9017H177.872V28.7434H178.557L182.792 35.9017H188L183.041 28.1342L183.839 27.8888C186.04 26.8813 186.998 24.9029 187.009 22.5264C187.022 19.8436 185.445 17.9434 182.967 17.0474C181.593 16.5505 179.965 16.4333 178.514 16.4333H173.589V35.9017H173.589ZM140.324 19.9235H141.057C141.964 19.9235 142.898 20.1547 143.632 20.7051C144.758 21.5499 145.118 22.899 145.118 24.2497C145.118 25.6202 144.66 26.9338 143.447 27.6828C142.812 28.0749 142.071 28.2435 141.329 28.2435H140.324V19.9235ZM136.041 35.9017H140.324V31.5825H141.42C143.288 31.5825 145.258 31.1003 146.757 29.9465C148.708 28.4445 149.4 26.1835 149.4 23.7967C149.4 20.5844 147.79 17.9656 144.7 16.9295C143.515 16.532 142.087 16.4335 140.845 16.4335H136.041V35.9019V35.9017ZM118.024 30.9097C116.822 29.5737 116.327 27.9336 116.327 26.1525C116.327 24.3958 116.832 22.764 118.025 21.454C119.177 20.1895 120.632 19.5611 122.344 19.5611C124.066 19.5611 125.515 20.1962 126.688 21.4507C127.907 22.754 128.418 24.3845 128.418 26.1525C128.418 27.9593 127.928 29.6023 126.69 30.9433C125.52 32.2109 124.067 32.8044 122.344 32.8044C120.633 32.8044 119.169 32.1828 118.024 30.9097ZM115.21 18.9333C113.196 20.9192 112.346 23.3745 112.346 26.183C112.346 28.9917 113.158 31.5463 115.208 33.5202C117.198 35.4369 119.618 36.2945 122.373 36.2945C125.125 36.2945 127.524 35.4172 129.508 33.4908C131.557 31.5016 132.399 29.0143 132.399 26.183C132.399 23.3625 131.536 20.92 129.507 18.9343C127.529 16.9978 125.141 16.0711 122.373 16.0711C119.594 16.0711 117.192 16.9799 115.21 18.9333Z" fill="#2F5D8E"/>
</svg>
